<?xml version="1.0" encoding="utf-8"?>
<!-- Generator: Adobe Illustrator 17.1.0, SVG Export Plug-In . SVG Version: 6.00 Build 0)  -->
<!DOCTYPE svg PUBLIC "-//W3C//DTD SVG 1.1//EN" "http://www.w3.org/Graphics/SVG/1.1/DTD/svg11.dtd">
<svg version="1.1" id="Layer_1" xmlns="http://www.w3.org/2000/svg" xmlns:xlink="http://www.w3.org/1999/xlink" x="0px" y="0px"
	 viewBox="0 0 61.8 80.1" enable-background="new 0 0 61.8 80.1" xml:space="preserve">
<g>
	<path fill="#FFFFFF" d="M1.2,15.3h13L5.9,48.2H13v4.6H0L8.3,20H1.2V15.3z"/>
	<path fill="#FFFFFF" d="M21.7,36.9c0,1,0.1,2.1,0.3,3.4c0.1,1.3,0.3,2.5,0.6,3.7c0.2,1.2,0.6,2.1,1,2.9c0.4,0.8,1,1.2,1.6,1.2v4.7
		c-1.3,0-2.4-0.4-3.3-1.1c-0.9-0.7-1.6-1.7-2.2-2.8c-0.6-1.2-1.1-2.4-1.4-3.9c-0.3-1.4-0.6-2.8-0.8-4.1c-0.2-1.3-0.3-2.6-0.3-3.7
		c0-1.1-0.1-1.9-0.1-2.5v-0.5c0-3.3,0.3-6.2,0.8-8.9c0.2-1.1,0.4-2.2,0.8-3.3c0.3-1.1,0.7-2,1.2-2.9c0.5-0.8,1-1.5,1.6-2
		c0.6-0.5,1.3-0.8,2.1-0.8c0.8,0,1.5,0.3,2.1,0.9c0.6,0.6,1.2,1.4,1.6,2.3c0.4,1,0.8,2.1,1.1,3.3c0.3,1.2,0.6,2.5,0.8,3.8
		c0.5,3,0.7,6.5,0.8,10.3H21.7z M23.5,21.2c-0.2,0-0.4,0.2-0.5,0.5c-0.1,0.3-0.3,0.7-0.4,1.3c-0.1,0.5-0.2,1.1-0.3,1.8
		c-0.1,0.7-0.2,1.3-0.2,2c-0.2,1.6-0.3,3.4-0.4,5.5h3.5c0-0.9,0-2-0.1-3.2c0-1.2-0.1-2.4-0.3-3.6c-0.1-1.2-0.3-2.1-0.5-3
		C24.1,21.6,23.8,21.2,23.5,21.2z"/>
	<path fill="#FFFFFF" d="M46.4,21.1c-1.4,0.1-2.7,0.5-3.9,0.9c-1,0.4-1.8,1-2.7,1.8c-0.8,0.8-1.2,1.9-1.2,3.3c0,1.3,0.4,2.4,1.2,3.2
		c0.8,0.9,1.6,1.8,2.4,2.8c1.2,1.3,2.3,2.7,3.3,4c1,1.3,1.5,3,1.5,5c0,1.3-0.2,2.5-0.5,3.5c-0.4,1-0.8,1.9-1.4,2.6
		c-0.6,0.7-1.3,1.4-2,1.9c-0.7,0.5-1.5,0.9-2.3,1.3c-1.8,0.8-3.9,1.2-6.2,1.3v-4.7c1.4,0,2.7-0.3,3.8-0.7c1-0.4,1.8-1,2.7-1.8
		c0.8-0.8,1.2-1.9,1.2-3.4c0-1.2-0.3-2.4-1-3.5c-0.7-1.1-1.5-2.1-2.5-3.1c-0.6-0.7-1.2-1.3-1.7-1.9c-0.6-0.6-1.1-1.2-1.5-1.8
		c-0.4-0.6-0.8-1.3-1-2.1c-0.3-0.8-0.4-1.7-0.4-2.7c0-1.2,0.2-2.4,0.5-3.3c0.4-1,0.8-1.8,1.4-2.6c0.6-0.7,1.2-1.3,2-1.9
		c0.7-0.5,1.5-1,2.3-1.3c1.8-0.8,3.9-1.3,6.3-1.5V21.1z"/>
	<path fill="#FFFFFF" d="M61.7,21h-4.8v31.8h-4.7V0h4.7v16.3h4.8V21z"/>
</g>
<rect y="54.7" fill="#FFFFFF" width="61.8" height="4.6"/>
<g>
	<path fill="#FFFFFF" d="M10.1,79.1c0.8,0,1.4-0.1,1.8-0.3c0.5-0.2,0.7-0.5,0.7-0.9v-1.2c-0.3-0.1-0.5-0.2-0.9-0.3
		c-0.3-0.1-0.6-0.4-0.9-0.6c-0.3-0.3-0.5-0.7-0.7-1.1c-0.2-0.5-0.3-1-0.3-1.7c0-0.4,0.1-0.8,0.2-1.3c0.2-0.4,0.4-0.8,0.7-1.2
		c0.3-0.4,0.8-0.7,1.3-0.9c0.6-0.2,1.2-0.4,2.1-0.4v8.8c0,0.1,0,0.3-0.1,0.5c-0.1,0.2-0.3,0.5-0.5,0.7c-0.3,0.2-0.7,0.5-1.2,0.7
		c-0.5,0.2-1.3,0.3-2.2,0.3V79.1z M11.4,72.9c0,0.8,0.1,1.4,0.4,1.8c0.2,0.4,0.5,0.7,0.9,0.8v-5.1c-0.1,0.1-0.3,0.2-0.4,0.3
		c-0.1,0.1-0.3,0.3-0.4,0.5c-0.1,0.2-0.2,0.4-0.3,0.7S11.4,72.5,11.4,72.9z"/>
	<path fill="#FFFFFF" d="M21,76.7v-5.4c0.1-0.4,0.3-0.8,0.6-1.1c0.1-0.1,0.3-0.3,0.5-0.4c0.2-0.1,0.4-0.3,0.7-0.4
		c0.3-0.1,0.6-0.2,1-0.2s0.8-0.1,1.4-0.1v1c-0.6,0-1.1,0.1-1.5,0.2c-0.4,0.1-0.6,0.2-0.8,0.4c-0.2,0.1-0.3,0.3-0.3,0.4
		s-0.1,0.2-0.1,0.2v5.4H21z"/>
	<path fill="#FFFFFF" d="M32.6,65.9v2.5h-1.6v-2.5H32.6z M32.6,69.1v7.5h-1.6v-7.5H32.6z"/>
	<path fill="#FFFFFF" d="M41.1,62.3v14.4h-1.6V62.3H41.1z"/>
	<path fill="#FFFFFF" d="M49.8,62.3v14.4h-1.6V62.3H49.8z"/>
</g>
</svg>
